<?xml version="1.0" encoding="utf-8"?>
<!-- Generator: Adobe Illustrator 24.0.2, SVG Export Plug-In . SVG Version: 6.00 Build 0)  -->
<svg version="1.1" id="Layer_1" xmlns="http://www.w3.org/2000/svg" xmlns:xlink="http://www.w3.org/1999/xlink" x="0px" y="0px"
	 viewBox="0 0 578.27 624.85" style="enable-background:new 0 0 578.27 624.85;" xml:space="preserve">
<style type="text/css">
	.st0{fill:none;stroke:#07A091;stroke-width:4;stroke-miterlimit:9.9999;}
	.st1{fill:none;stroke:#07A091;stroke-width:4;stroke-miterlimit:10;}
	.st2{fill:#07A091;}
	.st3{fill:#F7F7F7;}
	.st4{fill:#FFFFFF;}
</style>
<g>
	
		<rect x="270.89" y="507.85" transform="matrix(0.7071 -0.7071 0.7071 0.7071 -287.4594 358.8775)" class="st0" width="37.16" height="37.16"/>
	
		<rect x="276.17" y="538.78" transform="matrix(0.7071 -0.7071 0.7071 0.7071 -305.6008 366.3987)" class="st0" width="26.63" height="26.63"/>
	<line class="st1" x1="289.49" y1="624.85" x2="289.49" y2="552.44"/>
</g>
<g>
	<polygon class="st2" points="166.14,90.06 289.14,0 412.14,90.06 289.14,180.13 	"/>
</g>
<g>
	<polygon class="st3" points="28.29,310.78 289.14,119.78 549.98,310.78 289.14,501.78 	"/>
</g>
<g>
	<path class="st2" d="M289.14,124.43L544.61,311.5L289.14,498.57L33.66,311.5L289.14,124.43 M289.14,119.47L26.89,311.5
		l262.25,192.03L551.39,311.5L289.14,119.47L289.14,119.47z"/>
</g>
<g>
	<g>
		<path class="st2" d="M218.43,224.65c2.15,0,4.27,0.2,6.36,0.61c1.97,0.41,3.92,1.02,5.84,1.83l-2.74,6.23
			c-2.93-1.22-6.06-1.83-9.37-1.83c-3.28,0-6.4,0.61-9.37,1.83c-2.93,1.28-5.56,3.08-7.89,5.4c-2.38,2.35-4.1,4.82-5.14,7.41h-0.04
			c-1.34,3.25-2,6.56-2,9.93c0,3.4,0.6,6.54,1.79,9.41c1.25,2.93,3.05,5.56,5.4,7.89c2.27,2.35,4.89,4.14,7.89,5.36
			c2.96,1.22,6.08,1.83,9.37,1.83c3.31,0,6.46-0.61,9.45-1.83l2.7,5.84c-1.98,0.84-3.92,1.45-5.84,1.83c-2,0.41-4.12,0.61-6.36,0.61
			c-4.3,0-8.31-0.62-12.03-1.87c-3.72-1.51-7.1-3.8-10.15-6.88c-3.14-3.11-5.43-6.51-6.88-10.2c-1.54-3.6-2.31-7.61-2.31-12.03
			c0-4.41,0.77-8.44,2.31-12.07c1.45-3.63,3.75-7.04,6.88-10.24c3.11-3.11,6.49-5.42,10.15-6.93c2.7-1.1,5.58-1.82,8.63-2.14h3.35
			V224.65z"/>
	</g>
	<g>
		<path class="st2" d="M285.79,287.17h-7.41l-2.57-5.88h-32.98l-2.61,5.88h-7.41l26.49-62.22L285.79,287.17z M273.37,275.19
			l-7.97-18.17c-1.74-4.68-3.76-9.69-6.06-15.03c-2.29,5.35-4.34,10.36-6.14,15.03l-7.97,18.17H273.37z"/>
	</g>
	<g>
		<path class="st2" d="M306.92,224.69l-1.74,6.88H301v48.71h5.79v6.88h-18.74l1.74-6.88h4.36v-48.71h-6.1v-6.88H306.92z"/>
	</g>
	<g>
		<path class="st2" d="M341.51,224.65l-1.74,6.75H328.7v55.81h-6.88V231.4h-12.81v-6.75H341.51z"/>
	</g>
	<g>
		<path class="st2" d="M371.23,261.2v26.05h-7.8v-26.01l-19.39-36.69h8.37l14.86,29.24l15.51-29.24h7.89L371.23,261.2z"/>
	</g>
</g>
<g>
	<g>
		<path class="st2" d="M243.17,392.2c1.12-1.09,2.02-2.3,2.7-3.63c0.71-1.33,1.06-2.76,1.06-4.3c0.03-1.27-0.25-2.48-0.84-3.63
			c-0.56-1.09-1.27-2.02-2.13-2.79c-0.83-0.77-1.86-1.46-3.1-2.08c-1.18-0.65-2.32-1.17-3.41-1.55c-1.06-0.38-2.25-0.75-3.55-1.11
			c-2.81-0.77-5.27-1.76-7.4-2.97c-2.13-1.18-4-2.75-5.63-4.7c-1.06-1.3-1.88-2.76-2.44-4.39c-0.62-1.6-0.93-3.29-0.93-5.1
			c0-2.39,0.46-4.67,1.37-6.82c0.92-2.16,2.19-4.05,3.81-5.67c1.62-1.65,3.52-2.92,5.67-3.81c2.16-0.92,4.45-1.37,6.87-1.37
			c2.19,0,4.28,0.37,6.29,1.11c1.98,0.8,3.77,1.88,5.36,3.24l-4.03,5.85c-2.13-2.07-4.64-3.1-7.53-3.1c-1.45,0-2.82,0.28-4.12,0.84
			c-1.3,0.53-2.44,1.29-3.41,2.26c-0.98,1-1.74,2.16-2.3,3.46s-0.84,2.66-0.84,4.08c0,1.03,0.16,2.01,0.49,2.92
			c0.33,0.92,0.72,1.71,1.2,2.39c0.5,0.65,1.12,1.27,1.86,1.86c0.74,0.56,1.46,1.03,2.17,1.42c0.68,0.38,1.49,0.77,2.44,1.15
			c0.95,0.35,1.76,0.65,2.44,0.89c0.68,0.21,1.46,0.46,2.35,0.75c0.92,0.27,1.61,0.49,2.08,0.66c1.51,0.53,2.94,1.17,4.3,1.91
			c1.39,0.74,2.7,1.63,3.94,2.66c1.27,1,2.35,2.08,3.23,3.24c0.86,1.15,1.57,2.47,2.13,3.94c0.53,1.45,0.8,2.97,0.8,4.56
			c0,2.42-0.53,4.73-1.6,6.91c-1.06,2.22-2.44,4.11-4.12,5.67c-1.74,1.57-3.77,2.82-6.07,3.77c-2.28,0.86-4.67,1.29-7.18,1.29
			s-5.01-0.52-7.49-1.55c-2.45-1.06-4.61-2.58-6.47-4.56c-1.6-1.8-2.79-3.73-3.59-5.78s-1.21-4.47-1.24-7.25l6.91-0.04
			c0.03,2.04,0.5,3.97,1.42,5.81c0.92,1.83,2.26,3.31,4.03,4.43c2.1,1.3,4.55,1.89,7.36,1.77
			C238.84,394.69,241.22,393.82,243.17,392.2z"/>
	</g>
	<g>
		<path class="st2" d="M305.26,401.81h-7.53l-2.61-5.98h-33.55l-2.66,5.98h-7.53l26.94-63.28L305.26,401.81z M292.63,389.63
			l-8.11-18.48c-1.77-4.76-3.83-9.85-6.16-15.29c-2.33,5.44-4.42,10.53-6.25,15.29L264,389.63H292.63z"/>
	</g>
	<g>
		<path class="st2" d="M336.46,387.41l27.43-49.06v63.5h-7.14v-36.03l-20.3,35.98l-21.76-36.43v36.47h-7.13v-63.5L336.46,387.41z"/>
	</g>
</g>
<g>
	<path class="st2" d="M315.89,295.18c0.19,0.31,0.12,0.58-0.19,0.8s-0.6,0.17-0.84-0.14c-0.69-1.19-1.78-1.94-3.29-2.25
		c-4.76-1-12.27,1.88-22.53,8.64c-8.45,5.57-14.8,8.35-19.06,8.35c-1.31,0-2.41-0.25-3.29-0.75c-2.19-1.31-3.16-4-2.91-8.07
		c0.06-0.38,0.28-0.56,0.66-0.56s0.56,0.22,0.56,0.66c-0.25,3.63,0.5,5.95,2.25,6.95c3.44,2,10.48-0.5,21.12-7.51
		c10.58-6.95,18.4-9.89,23.47-8.82C313.6,292.83,314.95,293.74,315.89,295.18z M290.54,320.9c5.26-3.69,10.11-6.24,14.55-7.65
		c5.08-1.61,7.66-1.16,9.01,0.14c1.75,1.75,1.13,4.85-1.88,9.29c-0.19,0.31-0.45,0.36-0.8,0.14c-0.34-0.22-0.39-0.48-0.14-0.8
		c2.63-3.88,3.29-6.48,1.97-7.79c-1.19-1.13-3.88-1.03-8.07,0.28s-8.86,3.75-13.99,7.32c-10.64,7.39-17.99,11.08-22.06,11.08
		c-1.13,0-2.03-0.25-2.72-0.75c-1.88-1.31-2.19-4.32-0.94-9.01c0.13-0.38,0.38-0.52,0.75-0.42c0.38,0.09,0.53,0.33,0.47,0.7
		c-1.19,4.19-1.06,6.79,0.38,7.79C269.89,333.23,277.71,329.79,290.54,320.9z M280.97,317.05c0.12-0.12,0.27-0.06,0.42,0.19
		c0.16,0.25,0.23,0.5,0.23,0.75s-0.06,0.41-0.19,0.47c-0.19,0.13-0.44,0.25-0.75,0.38c0.25,0.63,0.5,1.28,0.75,1.97
		c0.12,0.13,0.05,0.25-0.23,0.38s-0.58,0.19-0.89,0.19c-0.31,0-0.5-0.06-0.56-0.19c-0.25-0.56-0.5-1.19-0.75-1.88
		c-0.25,0.06-0.7,0.17-1.36,0.33c-0.66,0.16-1.14,0.27-1.46,0.33c0,0.63,0.06,1.22,0.19,1.78c0,0.13-0.14,0.25-0.42,0.38
		s-0.58,0.17-0.89,0.14c-0.31-0.03-0.47-0.11-0.47-0.23c-0.13-0.44-0.19-0.94-0.19-1.5c-0.06,0.06-0.13,0.09-0.19,0.09
		c-0.13,0.06-0.27-0.01-0.42-0.23c-0.16-0.22-0.23-0.45-0.23-0.7s0.06-0.44,0.19-0.56c0.19-0.06,0.44-0.16,0.75-0.28
		c0.31-2.56,1.25-4.54,2.82-5.91c0.06-0.06,0.28-0.12,0.66-0.19c0.25-0.12,0.56-0.19,0.94-0.19s0.56,0.09,0.56,0.28
		c0.12,1.5,0.38,3,0.75,4.51C280.47,317.21,280.72,317.12,280.97,317.05z M276.27,318.37c0.19-0.06,0.53-0.16,1.03-0.28
		s0.91-0.22,1.22-0.28c-0.38-1.19-0.63-2.38-0.75-3.57C277.02,315.36,276.52,316.74,276.27,318.37z M291.01,313.3
		c0-0.25,0.03-0.61,0.09-1.08s0.09-0.8,0.09-0.99c0.31-2.38,0.41-3.82,0.28-4.32c-0.06-0.12-0.03-0.24,0.09-0.33
		s0.26-0.16,0.42-0.19s0.33-0.05,0.52-0.05s0.34,0.02,0.47,0.05c0.12,0.03,0.19,0.08,0.19,0.14c0.19,0.63,0.16,1.94-0.09,3.94
		l-0.56,4.69c0,0.13-0.13,0.22-0.38,0.28c-0.19,0.19-0.49,0.3-0.89,0.33c-0.41,0.03-0.67-0.05-0.8-0.24
		c-0.94-1.25-1.63-2.57-2.07-3.94c-0.31,1.75-0.34,3.22-0.09,4.41c0.06,0.13-0.05,0.25-0.33,0.38s-0.58,0.17-0.89,0.14
		c-0.31-0.03-0.47-0.11-0.47-0.23c-0.31-1.19-0.28-2.85,0.09-4.98c0.38-2.13,0.56-3.44,0.56-3.94c0-0.31,0.38-0.47,1.13-0.47
		c0.69-0.06,1.03,0.03,1.03,0.28C289.42,309.26,289.95,311.3,291.01,313.3z M300.31,310.95c-0.56-0.38-0.89-0.88-0.99-1.5
		c-0.09-0.62-0.06-1.24,0.09-1.83c0.16-0.59,0.31-1.23,0.47-1.92s0.17-1.22,0.05-1.6c-0.5,0-0.78-0.06-0.84-0.19
		c0-0.06,0.06-0.12,0.19-0.19c0.06-0.06,0.16-0.12,0.28-0.19c0.69-0.38,1.27-0.67,1.74-0.89s1.11-0.33,1.92-0.33
		c0.81,0,1.5,0.28,2.07,0.84c0.81,1.13,1.16,2.21,1.03,3.24s-0.53,2.02-1.22,2.96c-0.31,0.44-0.69,0.81-1.13,1.13
		c-0.44,0.31-1,0.56-1.69,0.75C301.59,311.42,300.93,311.33,300.31,310.95z M301.43,306.73c-0.25,0.63-0.28,1.46-0.09,2.49
		s0.78,1.17,1.78,0.42c1-0.81,1.47-2.03,1.41-3.66c-0.06-1.25-0.41-2.1-1.03-2.53c-0.56-0.38-1.22-0.34-1.97,0.09
		c0.06,0.06,0.12,0.13,0.19,0.19c0.12,0.25,0.19,0.53,0.19,0.84s-0.02,0.55-0.05,0.7c-0.03,0.16-0.09,0.41-0.19,0.75
		C301.57,306.37,301.49,306.6,301.43,306.73z"/>
</g>
<circle class="st4" cx="289.55" cy="11.7" r="2.39"/>
<circle class="st4" cx="399.71" cy="90.37" r="2.39"/>
<circle class="st4" cx="181.91" cy="90.37" r="2.39"/>
<g>
	<path class="st4" d="M286.93,34.85l-6.19,8.97v6.23h-2.98v-6.27l-5.87-8.93h3.42l3.95,6.38l4.12-6.38H286.93z"/>
	<path class="st4" d="M295.96,44.54c0,0.82-0.15,1.59-0.46,2.29c-0.3,0.7-0.72,1.31-1.25,1.82s-1.16,0.92-1.87,1.22
		s-1.48,0.45-2.29,0.45s-1.57-0.15-2.28-0.45s-1.33-0.71-1.86-1.23c-0.53-0.52-0.95-1.13-1.25-1.83c-0.3-0.7-0.46-1.46-0.46-2.27
		c0-0.8,0.16-1.55,0.47-2.25c0.31-0.7,0.73-1.32,1.26-1.84c0.53-0.53,1.15-0.94,1.86-1.23c0.71-0.3,1.46-0.45,2.26-0.45
		c0.81,0,1.57,0.15,2.29,0.45c0.72,0.3,1.34,0.7,1.87,1.22s0.95,1.12,1.25,1.83S295.96,43.73,295.96,44.54z M293.22,44.54
		c0-0.47-0.08-0.91-0.25-1.31s-0.39-0.76-0.67-1.06c-0.28-0.3-0.62-0.54-0.99-0.71s-0.78-0.26-1.21-0.26
		c-0.43,0-0.83,0.09-1.21,0.26s-0.71,0.41-0.99,0.71c-0.28,0.3-0.51,0.66-0.67,1.06s-0.25,0.84-0.25,1.31
		c0,0.47,0.08,0.91,0.25,1.31c0.16,0.41,0.39,0.76,0.67,1.06c0.28,0.3,0.62,0.54,0.99,0.71c0.38,0.17,0.78,0.26,1.21,0.26
		c0.43,0,0.83-0.09,1.21-0.26c0.38-0.17,0.71-0.41,0.99-0.71c0.28-0.3,0.51-0.66,0.67-1.06C293.14,45.44,293.22,45.01,293.22,44.54z
		"/>
	<path class="st4" d="M307.39,50.03h-2.74v-0.84c-0.18,0.18-0.38,0.33-0.62,0.47c-0.23,0.13-0.48,0.25-0.74,0.34
		c-0.26,0.09-0.53,0.17-0.8,0.22c-0.27,0.05-0.53,0.08-0.77,0.08c-0.56,0-1.09-0.09-1.61-0.27s-0.97-0.45-1.36-0.82
		s-0.71-0.84-0.94-1.43c-0.23-0.58-0.35-1.27-0.35-2.07v-6.67h2.74v6.54c0,0.39,0.06,0.74,0.18,1.04c0.12,0.3,0.28,0.54,0.47,0.74
		s0.42,0.34,0.68,0.44c0.26,0.09,0.53,0.14,0.81,0.14c0.89,0,1.65-0.3,2.3-0.91v-7.98h2.74V50.03z"/>
	<path class="st4" d="M244.01,72.83h-2.74v-0.59c-0.48,0.33-0.99,0.56-1.53,0.68s-1.09,0.19-1.66,0.19c-0.53,0-1.01-0.08-1.44-0.24
		s-0.8-0.39-1.12-0.68c-0.32-0.3-0.56-0.65-0.73-1.05s-0.26-0.85-0.26-1.35c0-0.62,0.14-1.16,0.41-1.62s0.64-0.85,1.11-1.16
		c0.47-0.31,1.02-0.54,1.64-0.69s1.3-0.23,2.02-0.23h1.58c0-0.65-0.21-1.16-0.63-1.54c-0.42-0.38-1.02-0.57-1.81-0.57
		c-0.38,0-0.77,0.07-1.18,0.21c-0.41,0.14-0.81,0.39-1.22,0.76l-1.62-1.63c0.58-0.56,1.26-0.99,2.02-1.29s1.55-0.46,2.37-0.46
		c0.76,0,1.44,0.12,2.03,0.36c0.59,0.24,1.07,0.55,1.44,0.93c0.48,0.48,0.81,1.02,1.01,1.62c0.19,0.6,0.29,1.36,0.29,2.28V72.83z
		 M241.27,70.09v-2.03h-1.25c-0.38,0-0.74,0.03-1.07,0.08c-0.34,0.05-0.63,0.14-0.87,0.26c-0.25,0.12-0.44,0.28-0.59,0.47
		c-0.15,0.19-0.22,0.42-0.22,0.68c0,0.38,0.15,0.69,0.45,0.93s0.68,0.36,1.15,0.36c0.41,0,0.81-0.06,1.21-0.19
		C240.47,70.52,240.87,70.33,241.27,70.09z"/>
	<path class="st4" d="M254,62.99l-1.46,2.32c-0.27-0.29-0.56-0.55-0.88-0.77c-0.32-0.22-0.65-0.33-0.98-0.33
		c-0.18,0-0.37,0.04-0.58,0.12s-0.41,0.22-0.59,0.41c-0.18,0.19-0.34,0.44-0.47,0.75c-0.13,0.31-0.19,0.69-0.19,1.15v6.19h-2.74
		V61.85h2.74v1.18c0.33-0.47,0.69-0.83,1.09-1.08c0.4-0.25,0.85-0.38,1.34-0.38c0.48,0,0.95,0.13,1.42,0.39
		C253.16,62.21,253.6,62.56,254,62.99z"/>
	<path class="st4" d="M266.32,67.32c0,0.18-0.01,0.36-0.03,0.55c-0.02,0.19-0.04,0.39-0.07,0.59h-8.78c0.1,0.32,0.24,0.62,0.43,0.9
		c0.18,0.28,0.41,0.53,0.67,0.74c0.27,0.21,0.57,0.37,0.9,0.49c0.34,0.12,0.71,0.18,1.11,0.18c0.49,0,0.99-0.09,1.48-0.26
		s0.91-0.4,1.24-0.69l1.73,1.73c-0.76,0.57-1.5,0.97-2.23,1.21s-1.5,0.35-2.31,0.35c-0.82,0-1.59-0.15-2.31-0.46
		c-0.71-0.3-1.34-0.72-1.86-1.23c-0.53-0.52-0.94-1.13-1.25-1.83c-0.3-0.7-0.46-1.45-0.46-2.25c0-0.8,0.15-1.55,0.46-2.25
		c0.3-0.7,0.72-1.31,1.25-1.83c0.53-0.52,1.15-0.93,1.86-1.23s1.47-0.46,2.28-0.46c0.77,0,1.51,0.14,2.22,0.43
		c0.71,0.28,1.34,0.68,1.88,1.19c0.54,0.51,0.98,1.11,1.29,1.81C266.16,65.7,266.32,66.47,266.32,67.32z M263.45,66.26
		c-0.22-0.7-0.6-1.26-1.15-1.68s-1.17-0.64-1.87-0.64c-0.68,0-1.3,0.21-1.84,0.64s-0.92,0.98-1.14,1.68H263.45z"/>
	<path class="st4" d="M276.86,59.93h-2.85v-2.85h2.85V59.93z M276.82,72.83h-2.77v-11h2.77V72.83z"/>
	<path class="st4" d="M289.32,72.83h-2.74v-6.56c0-0.39-0.06-0.74-0.18-1.04c-0.12-0.3-0.28-0.54-0.49-0.74
		c-0.2-0.2-0.44-0.34-0.7-0.44c-0.26-0.09-0.53-0.14-0.81-0.14c-0.42,0-0.83,0.07-1.24,0.22s-0.78,0.38-1.11,0.69v8h-2.74V61.85
		h2.74l0.02,0.82c0.16-0.16,0.37-0.32,0.61-0.46c0.24-0.14,0.49-0.26,0.75-0.35c0.26-0.09,0.53-0.17,0.8-0.22s0.54-0.08,0.79-0.08
		c0.56,0,1.09,0.09,1.61,0.27c0.51,0.18,0.97,0.45,1.37,0.82c0.4,0.37,0.72,0.84,0.96,1.43c0.24,0.58,0.36,1.27,0.36,2.07V72.83z"/>
	<path class="st4" d="M301.52,61.85l-4.12,11h-2.7l-4.14-11h3l2.49,7.37l2.49-7.37H301.52z"/>
	<path class="st4" d="M305.61,59.93h-2.85v-2.85h2.85V59.93z M305.57,72.83h-2.77v-11h2.77V72.83z"/>
	<path class="st4" d="M314.19,72.58c-0.28,0.18-0.6,0.31-0.97,0.4c-0.37,0.09-0.74,0.13-1.1,0.13c-0.65,0-1.19-0.08-1.63-0.24
		s-0.8-0.4-1.06-0.73c-0.27-0.33-0.46-0.75-0.58-1.25c-0.12-0.51-0.18-1.1-0.18-1.79V64.3h-1.44v-1.24
		c0.89-0.37,1.61-0.91,2.16-1.63c0.55-0.72,0.93-1.66,1.13-2.81h0.89v3.21h2.77v2.47h-2.77v5c0,0.28,0.03,0.51,0.1,0.68
		c0.07,0.18,0.16,0.32,0.28,0.42c0.11,0.1,0.24,0.17,0.39,0.21s0.3,0.06,0.47,0.06c0.21,0,0.47-0.04,0.78-0.11
		c0.3-0.08,0.56-0.2,0.78-0.38V72.58z"/>
	<path class="st4" d="M327.15,67.32c0,0.18-0.01,0.36-0.03,0.55c-0.02,0.19-0.04,0.39-0.07,0.59h-8.78c0.1,0.32,0.24,0.62,0.43,0.9
		c0.18,0.28,0.41,0.53,0.67,0.74c0.27,0.21,0.57,0.37,0.9,0.49c0.34,0.12,0.71,0.18,1.11,0.18c0.49,0,0.99-0.09,1.48-0.26
		s0.91-0.4,1.24-0.69l1.73,1.73c-0.76,0.57-1.5,0.97-2.23,1.21s-1.5,0.35-2.31,0.35c-0.82,0-1.59-0.15-2.31-0.46
		c-0.71-0.3-1.34-0.72-1.86-1.23c-0.53-0.52-0.94-1.13-1.25-1.83c-0.3-0.7-0.46-1.45-0.46-2.25c0-0.8,0.15-1.55,0.46-2.25
		c0.3-0.7,0.72-1.31,1.25-1.83c0.53-0.52,1.15-0.93,1.86-1.23s1.47-0.46,2.28-0.46c0.77,0,1.51,0.14,2.22,0.43
		c0.71,0.28,1.34,0.68,1.88,1.19c0.54,0.51,0.98,1.11,1.29,1.81C326.99,65.7,327.15,66.47,327.15,67.32z M324.28,66.26
		c-0.22-0.7-0.6-1.26-1.15-1.68s-1.17-0.64-1.87-0.64c-0.68,0-1.3,0.21-1.84,0.64s-0.92,0.98-1.14,1.68H324.28z"/>
	<path class="st4" d="M339.05,72.83h-2.79v-0.57c-0.35,0.29-0.74,0.5-1.16,0.64c-0.42,0.13-0.86,0.2-1.33,0.2
		c-0.77,0-1.48-0.16-2.13-0.47c-0.65-0.31-1.2-0.73-1.67-1.25c-0.47-0.53-0.83-1.14-1.09-1.83c-0.26-0.7-0.39-1.43-0.39-2.2
		c0-0.82,0.15-1.59,0.45-2.29c0.3-0.7,0.69-1.31,1.19-1.83s1.06-0.93,1.69-1.23c0.63-0.3,1.29-0.45,1.96-0.45
		c0.47,0,0.92,0.06,1.37,0.19c0.44,0.13,0.82,0.3,1.14,0.53v-5.21h2.77V72.83z M336.29,69.88V64.6c-0.13-0.09-0.27-0.17-0.44-0.26
		s-0.34-0.15-0.51-0.21c-0.18-0.06-0.36-0.1-0.53-0.13c-0.18-0.03-0.34-0.05-0.48-0.05c-0.46,0-0.87,0.08-1.25,0.24
		c-0.38,0.16-0.7,0.39-0.98,0.68c-0.28,0.3-0.5,0.66-0.65,1.07s-0.23,0.88-0.23,1.39c0,0.49,0.08,0.95,0.23,1.36
		s0.36,0.77,0.63,1.06c0.27,0.3,0.59,0.53,0.96,0.69c0.38,0.16,0.78,0.25,1.23,0.25C334.99,70.7,335.67,70.43,336.29,69.88z"/>
	<path class="st4" d="M207.39,95.38c-0.28,0.18-0.6,0.31-0.97,0.4c-0.37,0.09-0.74,0.13-1.1,0.13c-0.65,0-1.19-0.08-1.63-0.24
		s-0.8-0.4-1.06-0.73c-0.27-0.33-0.46-0.75-0.58-1.25c-0.12-0.51-0.18-1.1-0.18-1.79V87.1h-1.44v-1.24
		c0.89-0.37,1.61-0.91,2.16-1.63c0.55-0.72,0.93-1.66,1.13-2.81h0.89v3.21h2.77v2.47h-2.77v5c0,0.28,0.03,0.51,0.1,0.68
		c0.07,0.18,0.16,0.32,0.28,0.42c0.11,0.1,0.24,0.17,0.39,0.21s0.3,0.06,0.47,0.06c0.21,0,0.47-0.04,0.78-0.11
		c0.3-0.08,0.56-0.2,0.78-0.38V95.38z"/>
	<path class="st4" d="M220.35,90.14c0,0.82-0.15,1.59-0.46,2.29c-0.3,0.7-0.72,1.31-1.25,1.82s-1.16,0.92-1.87,1.22
		s-1.48,0.45-2.29,0.45s-1.57-0.15-2.28-0.45s-1.33-0.71-1.86-1.23c-0.53-0.52-0.95-1.13-1.25-1.83c-0.3-0.7-0.46-1.46-0.46-2.27
		c0-0.8,0.16-1.55,0.47-2.25c0.31-0.7,0.73-1.32,1.26-1.84c0.53-0.53,1.15-0.94,1.86-1.23c0.71-0.3,1.46-0.45,2.26-0.45
		c0.81,0,1.57,0.15,2.29,0.45c0.72,0.3,1.34,0.7,1.87,1.22s0.95,1.12,1.25,1.83S220.35,89.33,220.35,90.14z M217.61,90.14
		c0-0.47-0.08-0.91-0.25-1.31s-0.39-0.76-0.67-1.06c-0.28-0.3-0.62-0.54-0.99-0.71s-0.78-0.26-1.21-0.26
		c-0.43,0-0.83,0.09-1.21,0.26s-0.71,0.41-0.99,0.71c-0.28,0.3-0.51,0.66-0.67,1.06s-0.25,0.84-0.25,1.31
		c0,0.47,0.08,0.91,0.25,1.31c0.16,0.41,0.39,0.76,0.67,1.06c0.28,0.3,0.62,0.54,0.99,0.71c0.38,0.17,0.78,0.26,1.21,0.26
		c0.43,0,0.83-0.09,1.21-0.26c0.38-0.17,0.71-0.41,0.99-0.71c0.28-0.3,0.51-0.66,0.67-1.06C217.53,91.04,217.61,90.61,217.61,90.14z
		"/>
	<path class="st4" d="M234.16,95.38c-0.28,0.18-0.6,0.31-0.97,0.4c-0.37,0.09-0.74,0.13-1.1,0.13c-0.65,0-1.19-0.08-1.63-0.24
		s-0.8-0.4-1.06-0.73c-0.27-0.33-0.46-0.75-0.58-1.25c-0.12-0.51-0.18-1.1-0.18-1.79V87.1h-1.44v-1.24
		c0.89-0.37,1.61-0.91,2.16-1.63c0.55-0.72,0.93-1.66,1.13-2.81h0.89v3.21h2.77v2.47h-2.77v5c0,0.28,0.03,0.51,0.1,0.68
		c0.07,0.18,0.16,0.32,0.28,0.42c0.11,0.1,0.24,0.17,0.39,0.21s0.3,0.06,0.47,0.06c0.21,0,0.47-0.04,0.78-0.11
		c0.3-0.08,0.56-0.2,0.78-0.38V95.38z"/>
	<path class="st4" d="M245.71,95.63h-2.74v-6.57c0-0.39-0.06-0.74-0.18-1.04c-0.12-0.3-0.28-0.54-0.48-0.74
		c-0.2-0.2-0.43-0.34-0.69-0.44c-0.26-0.09-0.53-0.14-0.81-0.14c-0.42,0-0.82,0.06-1.2,0.19c-0.38,0.13-0.75,0.3-1.11,0.53v8.21
		h-2.74V79.88h2.74l0.02,5.4c0.41-0.32,0.87-0.55,1.41-0.7c0.53-0.15,1.05-0.23,1.54-0.23c0.57,0,1.11,0.09,1.62,0.28
		c0.51,0.18,0.96,0.46,1.35,0.84c0.39,0.37,0.7,0.84,0.93,1.41c0.23,0.56,0.34,1.23,0.34,2V95.63z"/>
	<path class="st4" d="M259.14,90.12c0,0.18-0.01,0.36-0.03,0.55c-0.02,0.19-0.04,0.39-0.07,0.59h-8.78c0.1,0.32,0.24,0.62,0.43,0.9
		c0.18,0.28,0.41,0.53,0.67,0.74c0.27,0.21,0.57,0.37,0.9,0.49c0.34,0.12,0.71,0.18,1.11,0.18c0.49,0,0.99-0.09,1.48-0.26
		s0.91-0.4,1.24-0.69l1.73,1.73c-0.76,0.57-1.5,0.97-2.23,1.21s-1.5,0.35-2.31,0.35c-0.82,0-1.59-0.15-2.31-0.46
		c-0.71-0.3-1.34-0.72-1.86-1.23c-0.53-0.52-0.94-1.13-1.25-1.83c-0.3-0.7-0.46-1.45-0.46-2.25c0-0.8,0.15-1.55,0.46-2.25
		c0.3-0.7,0.72-1.31,1.25-1.83c0.53-0.52,1.15-0.93,1.86-1.23s1.47-0.46,2.28-0.46c0.77,0,1.51,0.14,2.22,0.43
		c0.71,0.28,1.34,0.68,1.88,1.19c0.54,0.51,0.98,1.11,1.29,1.81C258.99,88.5,259.14,89.27,259.14,90.12z M256.27,89.06
		c-0.22-0.7-0.6-1.26-1.15-1.68s-1.17-0.64-1.87-0.64c-0.68,0-1.3,0.21-1.84,0.64s-0.92,0.98-1.14,1.68H256.27z"/>
	<path class="st4" d="M282.49,84.63l-3.69,11.02h-2.38l-2.18-6.56l-2.18,6.56h-2.38l-3.71-11.02h2.89l2.07,6.88l2.07-6.88h2.43
		l2.09,6.88l2.07-6.88H282.49z"/>
	<path class="st4" d="M295.07,90.12c0,0.18-0.01,0.36-0.03,0.55c-0.02,0.19-0.04,0.39-0.07,0.59h-8.78c0.1,0.32,0.24,0.62,0.43,0.9
		c0.18,0.28,0.41,0.53,0.67,0.74c0.27,0.21,0.57,0.37,0.9,0.49c0.34,0.12,0.71,0.18,1.11,0.18c0.49,0,0.99-0.09,1.48-0.26
		s0.91-0.4,1.23-0.69l1.73,1.73c-0.76,0.57-1.5,0.97-2.23,1.21s-1.5,0.35-2.31,0.35c-0.82,0-1.59-0.15-2.31-0.46
		c-0.72-0.3-1.34-0.72-1.86-1.23s-0.94-1.13-1.24-1.83c-0.3-0.7-0.46-1.45-0.46-2.25c0-0.8,0.15-1.55,0.46-2.25
		c0.3-0.7,0.72-1.31,1.25-1.83c0.53-0.52,1.15-0.93,1.86-1.23c0.71-0.3,1.47-0.46,2.28-0.46c0.77,0,1.51,0.14,2.22,0.43
		c0.71,0.28,1.34,0.68,1.88,1.19c0.54,0.51,0.98,1.11,1.29,1.81S295.07,89.27,295.07,90.12z M292.2,89.06
		c-0.21-0.7-0.6-1.26-1.15-1.68c-0.55-0.42-1.17-0.64-1.87-0.64c-0.68,0-1.3,0.21-1.84,0.64c-0.54,0.42-0.92,0.98-1.14,1.68H292.2z"
		/>
	<path class="st4" d="M306.97,95.63h-2.79v-0.57c-0.35,0.29-0.74,0.5-1.16,0.64c-0.42,0.13-0.86,0.2-1.33,0.2
		c-0.77,0-1.48-0.16-2.13-0.47c-0.65-0.31-1.2-0.73-1.67-1.25c-0.47-0.53-0.83-1.14-1.09-1.83c-0.26-0.7-0.39-1.43-0.39-2.2
		c0-0.82,0.15-1.59,0.45-2.29c0.3-0.7,0.69-1.31,1.19-1.83s1.06-0.93,1.69-1.23c0.63-0.3,1.29-0.45,1.96-0.45
		c0.47,0,0.92,0.06,1.37,0.19c0.44,0.13,0.82,0.3,1.14,0.53v-5.21h2.77V95.63z M304.21,92.69V87.4c-0.13-0.09-0.27-0.17-0.44-0.26
		c-0.17-0.08-0.34-0.15-0.52-0.21c-0.18-0.06-0.36-0.1-0.53-0.13c-0.18-0.03-0.34-0.05-0.48-0.05c-0.46,0-0.87,0.08-1.25,0.24
		c-0.38,0.16-0.7,0.39-0.98,0.68c-0.28,0.3-0.5,0.66-0.65,1.07c-0.15,0.42-0.23,0.88-0.23,1.39c0,0.49,0.08,0.95,0.23,1.36
		c0.15,0.41,0.36,0.77,0.63,1.06c0.27,0.3,0.59,0.53,0.96,0.69s0.79,0.25,1.23,0.25C302.91,93.5,303.59,93.23,304.21,92.69z"/>
	<path class="st4" d="M319.43,95.63h-2.79v-0.57c-0.35,0.29-0.74,0.5-1.16,0.64c-0.42,0.13-0.86,0.2-1.33,0.2
		c-0.77,0-1.48-0.16-2.13-0.47c-0.65-0.31-1.2-0.73-1.67-1.25c-0.47-0.53-0.83-1.14-1.09-1.83c-0.26-0.7-0.39-1.43-0.39-2.2
		c0-0.82,0.15-1.59,0.45-2.29c0.3-0.7,0.69-1.31,1.19-1.83s1.06-0.93,1.69-1.23c0.63-0.3,1.29-0.45,1.96-0.45
		c0.47,0,0.92,0.06,1.37,0.19c0.44,0.13,0.82,0.3,1.14,0.53v-5.21h2.77V95.63z M316.67,92.69V87.4c-0.13-0.09-0.27-0.17-0.44-0.26
		s-0.34-0.15-0.51-0.21c-0.18-0.06-0.36-0.1-0.53-0.13c-0.18-0.03-0.34-0.05-0.48-0.05c-0.46,0-0.87,0.08-1.25,0.24
		c-0.38,0.16-0.7,0.39-0.98,0.68c-0.28,0.3-0.5,0.66-0.65,1.07s-0.23,0.88-0.23,1.39c0,0.49,0.08,0.95,0.23,1.36
		s0.36,0.77,0.63,1.06c0.27,0.3,0.59,0.53,0.96,0.69c0.38,0.16,0.78,0.25,1.23,0.25C315.38,93.5,316.05,93.23,316.67,92.69z"/>
	<path class="st4" d="M324.56,82.73h-2.85v-2.85h2.85V82.73z M324.52,95.63h-2.77v-11h2.77V95.63z"/>
	<path class="st4" d="M337.02,95.63h-2.74v-6.56c0-0.39-0.06-0.74-0.18-1.04c-0.12-0.3-0.28-0.54-0.49-0.74
		c-0.2-0.2-0.44-0.34-0.7-0.44c-0.26-0.09-0.53-0.14-0.81-0.14c-0.42,0-0.83,0.07-1.24,0.22s-0.78,0.38-1.11,0.69v8h-2.74V84.65
		h2.74l0.02,0.82c0.17-0.16,0.37-0.32,0.61-0.46c0.24-0.14,0.49-0.26,0.75-0.35c0.26-0.09,0.53-0.17,0.8-0.22s0.54-0.08,0.79-0.08
		c0.56,0,1.09,0.09,1.61,0.27c0.51,0.18,0.97,0.45,1.37,0.82c0.4,0.37,0.72,0.84,0.96,1.43c0.24,0.58,0.36,1.27,0.36,2.07V95.63z"/>
	<path class="st4" d="M349.2,86.81h-1.16c0.29,0.57,0.44,1.18,0.44,1.82c0,0.49-0.09,0.97-0.28,1.43c-0.18,0.46-0.45,0.88-0.79,1.26
		s-0.76,0.7-1.24,0.97c-0.49,0.27-1.04,0.44-1.64,0.53c-0.42,0.06-0.73,0.16-0.94,0.29c-0.21,0.13-0.31,0.27-0.31,0.4
		c0,0.13,0.1,0.26,0.31,0.37c0.21,0.11,0.52,0.19,0.94,0.23c1.42,0.13,2.52,0.48,3.3,1.06s1.17,1.36,1.17,2.32
		c0,0.49-0.12,0.95-0.36,1.37c-0.24,0.42-0.58,0.78-1.03,1.08s-0.99,0.54-1.62,0.7c-0.63,0.16-1.34,0.25-2.12,0.25
		c-0.8,0-1.51-0.08-2.15-0.25c-0.64-0.17-1.18-0.4-1.64-0.69c-0.45-0.3-0.8-0.66-1.04-1.07c-0.24-0.42-0.36-0.88-0.36-1.39
		c0-0.76,0.22-1.4,0.65-1.91c0.43-0.51,1.14-0.9,2.12-1.15c-0.3-0.11-0.52-0.27-0.66-0.47c-0.13-0.2-0.19-0.4-0.18-0.6
		c0.01-0.2,0.1-0.4,0.26-0.58s0.38-0.33,0.68-0.43c-0.33-0.15-0.65-0.35-0.95-0.59s-0.57-0.52-0.81-0.84s-0.43-0.67-0.57-1.06
		c-0.14-0.39-0.21-0.81-0.21-1.25c0-0.6,0.13-1.15,0.38-1.67c0.25-0.52,0.6-0.97,1.03-1.36c0.43-0.39,0.93-0.69,1.5-0.91
		c0.57-0.22,1.17-0.33,1.8-0.33c0.62,0,1.2,0.1,1.73,0.29h3.76V86.81z M346.26,97.51c0-0.44-0.22-0.77-0.67-0.97
		c-0.45-0.2-1.03-0.3-1.73-0.3c-0.76,0-1.35,0.11-1.79,0.32c-0.43,0.21-0.65,0.53-0.65,0.95c0,0.43,0.23,0.75,0.68,0.97
		c0.46,0.22,1.04,0.32,1.76,0.32c0.73,0,1.32-0.1,1.75-0.31C346.04,98.28,346.26,97.95,346.26,97.51z M345.74,88.64
		c0-0.28-0.05-0.54-0.16-0.78c-0.11-0.24-0.25-0.45-0.43-0.64c-0.18-0.18-0.4-0.33-0.64-0.44c-0.24-0.11-0.5-0.16-0.78-0.16
		c-0.28,0-0.53,0.05-0.77,0.16c-0.24,0.11-0.45,0.25-0.63,0.44c-0.18,0.18-0.33,0.4-0.43,0.64c-0.11,0.24-0.16,0.5-0.16,0.78
		c0,0.28,0.05,0.54,0.16,0.79c0.11,0.25,0.25,0.46,0.43,0.65c0.18,0.18,0.39,0.33,0.63,0.44c0.24,0.11,0.5,0.16,0.77,0.16
		c0.28,0,0.54-0.05,0.78-0.16c0.25-0.11,0.46-0.25,0.64-0.44c0.18-0.18,0.33-0.4,0.43-0.65C345.69,89.18,345.74,88.92,345.74,88.64z
		"/>
	<path class="st4" d="M367.86,90.14c0,0.82-0.15,1.59-0.46,2.29c-0.3,0.7-0.72,1.31-1.25,1.82c-0.53,0.51-1.16,0.92-1.87,1.22
		s-1.48,0.45-2.29,0.45s-1.57-0.15-2.28-0.45c-0.71-0.3-1.33-0.71-1.86-1.23c-0.53-0.52-0.95-1.13-1.25-1.83
		c-0.3-0.7-0.46-1.46-0.46-2.27c0-0.8,0.16-1.55,0.47-2.25c0.31-0.7,0.73-1.32,1.26-1.84c0.53-0.53,1.15-0.94,1.86-1.23
		c0.71-0.3,1.46-0.45,2.26-0.45c0.81,0,1.57,0.15,2.29,0.45c0.72,0.3,1.34,0.7,1.87,1.22c0.53,0.51,0.95,1.12,1.25,1.83
		C367.71,88.57,367.86,89.33,367.86,90.14z M365.12,90.14c0-0.47-0.08-0.91-0.25-1.31s-0.39-0.76-0.67-1.06
		c-0.28-0.3-0.62-0.54-1-0.71s-0.78-0.26-1.21-0.26c-0.43,0-0.83,0.09-1.21,0.26s-0.71,0.41-1,0.71c-0.28,0.3-0.51,0.66-0.67,1.06
		s-0.25,0.84-0.25,1.31c0,0.47,0.08,0.91,0.25,1.31c0.16,0.41,0.39,0.76,0.67,1.06c0.28,0.3,0.62,0.54,1,0.71
		c0.38,0.17,0.78,0.26,1.21,0.26c0.43,0,0.83-0.09,1.21-0.26c0.38-0.17,0.71-0.41,1-0.71c0.28-0.3,0.51-0.66,0.67-1.06
		C365.04,91.04,365.12,90.61,365.12,90.14z"/>
	<path class="st4" d="M375.71,82.37c-0.27-0.1-0.5-0.17-0.7-0.2c-0.2-0.03-0.42-0.05-0.67-0.05c-0.53,0-0.91,0.12-1.13,0.36
		s-0.33,0.68-0.33,1.31v0.87h1.73v2.39h-1.73v8.57h-2.74v-8.57h-1.33v-2.39h1.33v-0.84c0-1.38,0.26-2.43,0.77-3.15
		c0.52-0.72,1.42-1.08,2.72-1.08c0.73,0,1.42,0.09,2.07,0.27V82.37z"/>
</g>
</svg>
