<?xml version="1.0" encoding="utf-8"?>
<!-- Generator: Adobe Illustrator 24.0.2, SVG Export Plug-In . SVG Version: 6.00 Build 0)  -->
<svg version="1.1" id="Layer_1" xmlns="http://www.w3.org/2000/svg" xmlns:xlink="http://www.w3.org/1999/xlink" x="0px" y="0px"
	 viewBox="0 0 540.7 70.74" style="enable-background:new 0 0 540.7 70.74;" xml:space="preserve">
<style type="text/css">
	.st0{fill:none;stroke:#07A091;stroke-width:4;stroke-miterlimit:10;}
	.st1{fill:#FFFFFF;}
	.st2{fill:#07A091;}
</style>
<g>
	
		<rect x="79.84" y="16.92" transform="matrix(0.7071 0.7071 -0.7071 0.7071 53.9331 -59.1949)" class="st0" width="37.16" height="37.16"/>
	
		<rect x="59.45" y="22.19" transform="matrix(0.7071 0.7071 -0.7071 0.7071 46.4181 -41.052)" class="st0" width="26.63" height="26.63"/>
	<line class="st0" x1="0" y1="35.51" x2="72.41" y2="35.51"/>
</g>
<g>
	
		<rect x="423.7" y="16.92" transform="matrix(-0.7071 -0.7071 0.7071 -0.7071 729.9089 373.3494)" class="st0" width="37.16" height="37.16"/>
	
		<rect x="454.62" y="22.19" transform="matrix(-0.7071 -0.7071 0.7071 -0.7071 773.7097 391.4922)" class="st0" width="26.63" height="26.63"/>
	<line class="st0" x1="540.7" y1="35.51" x2="468.28" y2="35.51"/>
</g>
<g>
	<g>
		<rect x="98" y="2" class="st1" width="344" height="66.74"/>
	</g>
</g>
<g>
	<rect x="98" y="2" class="st0" width="344" height="66.74"/>
</g>
<g>
	<path class="st2" d="M136,43.92c0,1.39-0.3,2.72-0.91,3.97c-0.6,1.25-1.45,2.36-2.53,3.32c-1.08,0.96-2.37,1.73-3.85,2.3
		c-1.49,0.57-3.13,0.86-4.92,0.86c-1.61,0-3.06-0.09-4.34-0.28c-1.28-0.19-2.49-0.48-3.62-0.88c-1.13-0.4-2.21-0.92-3.25-1.56
		c-1.04-0.64-2.11-1.4-3.23-2.3l5.11-5.16c1.49,1.24,2.94,2.11,4.37,2.62c1.42,0.51,2.97,0.77,4.64,0.77c0.68,0,1.32-0.1,1.93-0.3
		c0.6-0.2,1.13-0.47,1.58-0.81c0.45-0.34,0.8-0.74,1.07-1.21c0.26-0.46,0.39-0.97,0.39-1.53c0-0.59-0.11-1.11-0.33-1.58
		c-0.22-0.46-0.6-0.91-1.16-1.35c-0.56-0.43-1.33-0.88-2.32-1.32c-0.99-0.45-2.26-0.95-3.81-1.51c-1.36-0.49-2.67-1.06-3.92-1.69
		c-1.25-0.63-2.35-1.4-3.3-2.3c-0.94-0.9-1.7-1.95-2.28-3.16c-0.57-1.21-0.86-2.63-0.86-4.27c0-1.58,0.32-3.03,0.95-4.37
		c0.63-1.33,1.5-2.47,2.6-3.41c1.1-0.94,2.38-1.68,3.85-2.21c1.47-0.53,3.06-0.79,4.76-0.79c2.85,0,5.25,0.37,7.2,1.11
		c1.95,0.74,3.68,1.83,5.2,3.25l-5.02,5.06c-0.93-0.9-1.97-1.59-3.11-2.07c-1.15-0.48-2.49-0.72-4.04-0.72
		c-0.71,0-1.37,0.11-1.97,0.32c-0.6,0.22-1.12,0.5-1.56,0.86c-0.43,0.36-0.78,0.77-1.05,1.25c-0.26,0.48-0.39,0.98-0.39,1.51
		c0,0.59,0.12,1.12,0.37,1.6c0.25,0.48,0.67,0.94,1.25,1.39c0.59,0.45,1.37,0.9,2.35,1.35c0.98,0.45,2.19,0.94,3.65,1.46
		c1.86,0.65,3.45,1.36,4.78,2.14c1.33,0.77,2.42,1.63,3.25,2.55c0.84,0.93,1.46,1.97,1.86,3.14C135.8,41.15,136,42.46,136,43.92z"/>
	<path class="st2" d="M178.59,53.67h-7.89l-3.44-7.43h-18.02l-3.48,7.43h-7.89l17.55-37.15h5.62L178.59,53.67z M164.43,40.25
		l-6.18-13.38l-6.27,13.38H164.43z"/>
	<path class="st2" d="M207.61,16.52l-14.07,37.15h-6.59l-14.4-37.15h7.99l9.66,26.1l9.52-26.1H207.61z"/>
	<path class="st2" d="M236.08,53.67h-24.52v-37.1h24.52v5.94h-17.46v8.87h17.23v5.8h-17.23V47.4h17.46V53.67z"/>
</g>
<g>
	<path class="st2" d="M262.68,30.18h-4.92v14.71h-3.49V30.18h-4.92v-3.07h13.33V30.18z"/>
	<path class="st2" d="M278.8,44.88h-3.45v-7.88h-7.01v7.88h-3.45V27.11h3.45v7.05h7.01v-7.05h3.45V44.88z"/>
	<path class="st2" d="M293.89,44.88h-11.75V27.11h11.75v2.85h-8.36v4.25h8.25v2.78h-8.25v4.89h8.36V44.88z"/>
</g>
<g>
	<path class="st2" d="M337.8,35.09c0,2.57-0.43,4.98-1.3,7.22c-0.87,2.25-2.07,4.21-3.62,5.9c-1.55,1.69-3.4,3.02-5.55,3.99
		c-2.15,0.97-4.5,1.46-7.04,1.46h-15.51V16.52h15.51c2.54,0,4.88,0.5,7.04,1.49c2.15,0.99,4,2.32,5.55,3.99
		c1.55,1.67,2.76,3.64,3.62,5.9C337.36,30.15,337.8,32.55,337.8,35.09z M330.51,34.91c0.03-1.73-0.23-3.37-0.79-4.92
		c-0.56-1.55-1.36-2.9-2.41-4.06c-1.05-1.16-2.35-2.07-3.88-2.74c-1.53-0.67-3.26-1-5.18-1h-6.27v25.36h6.27
		c1.89,0,3.58-0.32,5.09-0.95c1.5-0.63,2.78-1.52,3.83-2.65c1.05-1.13,1.86-2.46,2.44-3.99C330.17,38.41,330.48,36.73,330.51,34.91z
		"/>
	<path class="st2" d="M377.74,53.67h-7.89l-3.44-7.43h-18.02l-3.48,7.43h-7.9l17.55-37.15h5.62L377.74,53.67z M363.57,40.25
		l-6.18-13.38l-6.27,13.38H363.57z"/>
	<path class="st2" d="M400.91,22.97h-10.26v30.7h-7.29v-30.7h-10.26v-6.41h27.82V22.97z"/>
	<path class="st2" d="M430.07,53.67h-24.52v-37.1h24.52v5.94h-17.46v8.87h17.23v5.8h-17.23V47.4h17.46V53.67z"/>
</g>
</svg>
